<svg xmlns="http://www.w3.org/2000/svg" viewBox="0 0 48 48" role="img" aria-label="GIKSN"><path fill="#FFFFFF" d="M7,10h14v1h-14ZM23,10h3v1h-3ZM29,10h4v1h-4ZM40,10h5v1h-5ZM6,11h14v1h-14ZM23,11h3v1h-3ZM29,11h4v1h-4ZM39,11h4v1h-4ZM5,12h14v1h-14ZM23,12h3v1h-3ZM29,12h4v1h-4ZM38,12h4v1h-4ZM4,13h4v1h-4ZM23,13h3v1h-3ZM29,13h4v1h-4ZM37,13h4v1h-4ZM3,14h4v1h-4ZM23,14h3v1h-3ZM29,14h4v1h-4ZM35,14h5v1h-5ZM3,15h3v1h-3ZM11,15h10v1h-10ZM23,15h3v1h-3ZM29,15h4v1h-4ZM34,15h5v1h-5ZM3,16h3v1h-3ZM12,16h9v1h-9ZM23,16h3v1h-3ZM29,16h4v1h-4ZM34,16h4v1h-4ZM3,17h3v1h-3ZM13,17h8v1h-8ZM23,17h3v1h-3ZM29,17h4v1h-4ZM35,17h4v1h-4ZM3,18h4v1h-4ZM18,18h3v1h-3ZM23,18h3v1h-3ZM29,18h4v1h-4ZM36,18h4v1h-4ZM4,19h4v1h-4ZM18,19h3v1h-3ZM23,19h3v1h-3ZM29,19h4v1h-4ZM37,19h4v1h-4ZM5,20h16v1h-16ZM23,20h3v1h-3ZM29,20h4v1h-4ZM38,20h4v1h-4ZM6,21h15v1h-15ZM23,21h3v1h-3ZM29,21h4v1h-4ZM39,21h5v1h-5ZM7,22h14v1h-14ZM23,22h3v1h-3ZM30,22h2v1h-2ZM40,22h4v1h-4ZM9,25h15v1h-15ZM26,25h4v1h-4ZM39,25h3v1h-3ZM8,26h15v1h-15ZM26,26h5v1h-5ZM39,26h3v1h-3ZM7,27h15v1h-15ZM26,27h6v1h-6ZM39,27h3v1h-3ZM6,28h4v1h-4ZM26,28h7v1h-7ZM39,28h3v1h-3ZM6,29h4v1h-4ZM26,29h3v1h-3ZM30,29h4v1h-4ZM39,29h3v1h-3ZM7,30h14v1h-14ZM26,30h3v1h-3ZM31,30h4v1h-4ZM39,30h3v1h-3ZM8,31h14v1h-14ZM26,31h3v1h-3ZM32,31h4v1h-4ZM39,31h3v1h-3ZM9,32h14v1h-14ZM26,32h3v1h-3ZM33,32h4v1h-4ZM39,32h3v1h-3ZM20,33h4v1h-4ZM26,33h3v1h-3ZM34,33h4v1h-4ZM39,33h3v1h-3ZM20,34h4v1h-4ZM26,34h3v1h-3ZM35,34h7v1h-7ZM10,35h14v1h-14ZM26,35h3v1h-3ZM36,35h6v1h-6ZM8,36h15v1h-15ZM26,36h3v1h-3ZM37,36h5v1h-5ZM7,37h15v1h-15ZM26,37h3v1h-3ZM38,37h4v1h-4Z"/></svg>